<svg width="68" height="36" viewBox="0 0 68 36" fill="none" xmlns="http://www.w3.org/2000/svg">
<path fill-rule="evenodd" clip-rule="evenodd" d="M33.2444 5.10652C33.2444 5.10643 33.2443 5.10635 33.2442 5.10627L33.2436 5.10726L32.4842 5.75559C32.5086 5.78425 32.5659 5.86942 32.5871 6.08126L31.6118 7.52847C31.536 7.64216 31.5287 7.76006 31.5897 7.88217L32.5923 9.90272C32.5922 10.1434 32.592 10.3841 32.5918 10.6248L31.4255 13.6108C31.4164 13.634 31.4017 13.6546 31.3827 13.6708C31.3638 13.687 31.3411 13.6982 31.3167 13.7035C31.2924 13.7088 31.2671 13.708 31.2431 13.7012C31.2191 13.6944 31.1972 13.6818 31.1792 13.6645L23.1655 6.00947C23.0435 5.89149 22.8923 5.80667 22.7266 5.76314L0.279988 0.0187036C0.0421239 -0.0423514 -0.0441833 0.0460719 0.0210716 0.283976C0.124878 0.666237 0.459612 1.12255 0.710475 1.46453C0.795355 1.58024 0.870633 1.68285 0.924115 1.76509C2.13659 3.64095 3.44274 5.37997 4.84257 6.98214C4.89918 7.04905 4.98087 7.09103 5.06991 7.09898C9.69669 7.59795 14.3224 8.06639 18.9471 8.5043C18.9808 8.50851 18.9966 8.52746 18.9945 8.56115V8.5643C18.9945 8.58957 18.9818 8.6022 18.9566 8.6022C15.0792 8.85484 11.1512 8.99379 7.1728 9.01906C7.00861 9.02116 6.95177 9.09906 7.00229 9.25275C7.0486 9.39592 7.12438 9.52013 7.22963 9.6254C8.41896 10.7939 9.73037 11.9718 11.1639 13.1592C11.4678 13.4111 11.7278 13.3369 12.014 13.2553C12.1262 13.2233 12.2424 13.1901 12.3669 13.175C15.2991 12.8129 18.2251 12.415 21.1447 11.9813C21.1826 11.975 21.2058 11.9908 21.2142 12.0286L21.2173 12.0318C21.2258 12.0697 21.211 12.0939 21.1731 12.1044C18.5335 12.9045 15.9159 13.7487 13.3204 14.6372C13.3024 14.643 13.2864 14.6538 13.2742 14.6683C13.262 14.6828 13.2541 14.7005 13.2515 14.7193C13.2489 14.738 13.2516 14.7572 13.2593 14.7745C13.267 14.7918 13.2795 14.8066 13.2952 14.8172L17.4883 17.5204C17.5345 17.551 17.5881 17.5686 17.6436 17.5714C17.6992 17.5742 17.7546 17.5621 17.8041 17.5362L24.438 14.034C24.5345 13.9834 24.642 13.9569 24.7514 13.9569C24.8608 13.9569 24.9689 13.9834 25.0663 14.034L29.932 16.5636C29.996 16.5964 30.0453 16.6524 30.0704 16.7207C30.0955 16.7889 30.0945 16.8646 30.0678 16.9331L25.3568 28.7409C25.3084 28.8588 25.3326 28.9588 25.4294 29.0409L28.5617 31.7284C28.5868 31.7497 28.6169 31.7644 28.6492 31.771C28.6815 31.7776 28.715 31.776 28.7465 31.7662C28.7779 31.7565 28.8065 31.7389 28.8294 31.7152C28.8523 31.6914 28.8688 31.6623 28.8774 31.6305C29.5573 29.1441 30.2467 26.6924 30.9456 24.2754C30.954 24.2418 30.9761 24.2291 31.0119 24.2376C31.0393 24.2418 31.0508 24.2576 31.0466 24.2849C30.7351 27.1356 30.4078 29.9651 30.0646 32.7737C30.052 32.8747 30.0846 32.9579 30.1625 33.0232L32.5888 35.0623C32.5888 35.083 32.5889 35.1037 32.5889 35.1243C32.5152 35.2757 32.4571 35.4475 32.4328 35.6372L33.4241 35.7642L33.4242 35.7643C33.4242 35.7643 33.4242 35.7643 33.4242 35.7643L33.4247 35.7643C33.4563 35.8506 33.5005 35.9033 33.5573 35.9222C33.6036 35.937 33.6457 35.9285 33.6836 35.897L33.7836 35.8104L34.12 35.8535L34.1387 35.8559L34.4166 35.8915C34.4119 35.9284 34.4038 35.9568 34.397 35.9758L34.394 35.9839L34.3914 35.9903L34.389 35.9956C34.3865 36.0012 34.3848 36.0042 34.3846 36.0046L34.3846 36.0047L34.3895 35.9959C34.5259 35.7515 34.5924 35.4824 34.5889 35.2069L34.5889 35.1184C35.3623 34.4585 36.153 33.7969 36.9611 33.1337C37.0853 33.0305 37.1379 32.8979 37.119 32.7358C36.7127 29.4051 36.3433 26.2155 36.0107 23.167C36.0086 23.1459 36.0181 23.1333 36.0391 23.1291L36.0423 23.1259C36.0633 23.1217 36.0781 23.1312 36.0865 23.1543C36.8885 25.8892 37.6694 28.6946 38.4293 31.5705C38.4361 31.596 38.4491 31.6195 38.4672 31.6387C38.4854 31.658 38.5081 31.6723 38.5332 31.6805C38.5584 31.6887 38.5852 31.6904 38.6111 31.6855C38.6371 31.6806 38.6615 31.6693 38.6819 31.6526L41.7794 29.0377C41.8721 28.9598 41.8952 28.864 41.8489 28.7504L37.1158 16.9394C37.04 16.7541 37.0906 16.6151 37.2674 16.5225L42.3352 13.8982C42.4678 13.8287 42.6014 13.8298 42.7362 13.9014L49.3416 17.3783C49.5437 17.4878 49.7416 17.4794 49.9353 17.3531L53.86 14.8172C53.98 14.7393 53.9716 14.6782 53.8348 14.634L45.5748 11.9813C45.4211 11.9307 45.4253 11.9086 45.5874 11.915C46.1705 11.9339 46.7609 11.9865 47.3587 12.0729C50.0384 12.4623 52.7686 12.836 55.5493 13.194C55.6608 13.209 55.7742 13.2007 55.8823 13.1697C55.9904 13.1388 56.091 13.0857 56.1776 13.0139C57.5269 11.9044 58.8583 10.6918 60.1719 9.37591C60.1914 9.35581 60.2046 9.3305 60.2101 9.30303C60.2156 9.27556 60.213 9.24709 60.2026 9.22106C60.1923 9.19503 60.1746 9.17254 60.1518 9.15631C60.129 9.14008 60.102 9.1308 60.074 9.12959C56.3502 9.02853 52.6497 8.89694 48.9722 8.73483C48.467 8.71378 47.9366 8.66746 47.3808 8.59588C47.3535 8.59167 47.3398 8.57482 47.3398 8.54535C47.3419 8.51587 47.3577 8.50009 47.3871 8.49798C48.1513 8.47272 48.8743 8.42429 49.5563 8.35271C53.5074 7.94848 57.6238 7.52846 61.9053 7.09266C62.1621 7.06529 62.3747 6.95266 62.5431 6.75475C64.244 4.73994 65.7711 2.60406 67.1247 0.347128C67.2467 0.142909 67.192 0.0702788 66.9605 0.129229L44.5233 5.8484C44.3723 5.88772 44.2342 5.96493 44.1223 6.07262L36.137 13.7213C36.1108 13.7471 36.0785 13.7659 36.0432 13.7761C36.0078 13.7863 35.9704 13.7875 35.9342 13.7797C35.898 13.7719 35.8642 13.7553 35.8357 13.7314C35.8072 13.7074 35.7849 13.6769 35.7707 13.6424L34.5918 10.6822L34.5923 9.9108L35.5813 7.88216C35.6402 7.76216 35.6339 7.64531 35.5623 7.53162L34.5854 5.98C34.5456 5.43125 34.3797 4.89562 34.0053 4.45703L33.7585 4.66768C33.7069 4.59616 33.6377 4.57814 33.551 4.61362C33.4205 4.67046 33.3184 4.83468 33.2447 5.10627L33.2444 5.10652Z" fill="url(#paint0_linear_47_2073)"/>
<defs>
<linearGradient id="paint0_linear_47_2073" x1="-4.37595e-07" y1="28.088" x2="67.1031" y2="11.7819" gradientUnits="userSpaceOnUse">
<stop stop-color="#F7F092"/>
<stop offset="0.244062" stop-color="#94641B"/>
<stop offset="0.514063" stop-color="#EBDC83"/>
<stop offset="0.749062" stop-color="#94641B"/>
<stop offset="1" stop-color="#F9F295"/>
</linearGradient>
</defs>
</svg>
